# xmcd
#
# Track frame offsets:
# 150
# 102305
# 156315
#
# Disc length: 2742 seconds
#
#
# Revision: 0
# Processed by: cddbd v1.5.1PL2 Copyright (c) Steve Scherf et al.
# Submitted via: FreeRIP 2.944 
#
DISCID=1e0ab403
DTITLE=Steamhammer - Speech
DYEAR=1972
DGENRE=Progressive Rock
TTITLE0=Penumbra
TTITLE1=Telegram
TTITLE2=For Against
EXTD=
EXTT0=
EXTT1=
EXTT2=
PLAYORDER=
